<svg xmlns="http://www.w3.org/2000/svg" width="254.239" height="70.5" viewBox="0 0 254.239 70.5">
  <g id="Groupe_506" data-name="Groupe 506" transform="translate(-2224.761 11702.5)">
    <g id="Groupe_451" data-name="Groupe 451" transform="translate(2224.761 -11702)">
      <path id="Soustraction_2" data-name="Soustraction 2" d="M28.409,0H8.645A.836.836,0,0,0,7.79.743a.841.841,0,0,0,.626.951,29.557,29.557,0,0,0,4.462.806,5.241,5.241,0,0,1,4.665,5.2V22.984a23.056,23.056,0,0,0-6.481,1.691,17.786,17.786,0,0,0-5.628,3.642A18.336,18.336,0,0,0,0,41.354c0,3.19,4.712,13.023,7.521,18.6A3.7,3.7,0,0,0,10.841,62H25.718a3.693,3.693,0,0,0,3.331-2.066c3.6-7.256,7.892-16.37,7.892-18.58a15.171,15.171,0,0,0-.683-4.464l-.564.243a4.32,4.32,0,0,1-1.123.312,13.581,13.581,0,0,1,.564,3.038,6.079,6.079,0,0,0-1.084-.3,33.414,33.414,0,0,0-3.686-.489c-3.185-.283-7.409-.439-11.894-.439s-8.709.156-11.894.439a33.477,33.477,0,0,0-3.685.489,6.093,6.093,0,0,0-1.093.307A16.786,16.786,0,0,1,18.471,24.659a14.224,14.224,0,0,1,6.359,1.748l-.276-2.093a16.165,16.165,0,0,0-5.043-1.382V7.7a5.241,5.241,0,0,1,4.664-5.2,29.482,29.482,0,0,0,4.463-.806.839.839,0,0,0,.625-.951A.835.835,0,0,0,28.409,0Zm-10,42.9C9.2,42.9,1.7,42.233,1.7,41.413s7.5-1.488,16.709-1.488,16.71.667,16.71,1.488S27.626,42.9,18.412,42.9ZM10.841,60.224a1.933,1.933,0,0,1-1.734-1.068c-3.691-7.33-6.269-13.271-7.072-16.3a7.433,7.433,0,0,0,.837.214l.019,0a33.4,33.4,0,0,0,3.685.489c3.186.283,7.41.439,11.894.439s8.71-.156,11.894-.439a33.362,33.362,0,0,0,3.686-.489c.187-.039.47-.1.74-.181a167.549,167.549,0,0,1-7.332,16.251,1.928,1.928,0,0,1-1.74,1.079Zm18.431-13.09a.882.882,0,0,0-.823.557L24.869,56.6a.888.888,0,1,0,1.647.662l3.58-8.912A.889.889,0,0,0,29.6,47.2.9.9,0,0,0,29.272,47.135Z" transform="translate(57.88 62) rotate(180)" fill="#980d2b" stroke="rgba(0,0,0,0)" stroke-miterlimit="10" stroke-width="1"/>
      <g id="Groupe_448" data-name="Groupe 448" transform="translate(0 22)">
        <path id="Tracé_267" data-name="Tracé 267" d="M214.226,220.147a4.161,4.161,0,0,0,2.759-1.047l.306-.271h3.161a4.144,4.144,0,0,0,2.914-1.191l.314-.308h.79a4.16,4.16,0,0,0,4.162-4.136l-2.826-21.464v-.064a4.139,4.139,0,0,0-4.055-4.1h-.086c-.08,0-.167.008-.273.018l-.563.052-.08-.1H220.7v-.057l-.234-.28a4.246,4.246,0,0,0-3.16-1.5h-.089a4.326,4.326,0,0,0-1.609.352l-.67.288-.517-.514a4.251,4.251,0,0,0-2.912-1.226h-.083a4.234,4.234,0,0,0-2.972,1.56l-.608.7-.784-.5a4.317,4.317,0,0,0-2.207-.664h-.089a4.241,4.241,0,0,0-3.171,1.518l-.267.324-.416.058a4.176,4.176,0,0,0-3.585,4.059v.065L194.5,213.2a4.16,4.16,0,0,0,4.162,4.136h.592l.315.308a4.144,4.144,0,0,0,2.914,1.191h3.161l.306.271a4.161,4.161,0,0,0,2.758,1.047Z" transform="translate(-193.42 -183.529)" fill="none"/>
        <path id="Tracé_268" data-name="Tracé 268" d="M188.822,184.224a5.238,5.238,0,0,1,4.515-5.114,5.323,5.323,0,0,1,3.983-1.909l.135,0v0a5.383,5.383,0,0,1,2.757.831,5.291,5.291,0,0,1,3.762-1.931l.135,0v0a5.346,5.346,0,0,1,3.647,1.54,5.416,5.416,0,0,1,2.016-.439l.135,0v0a5.325,5.325,0,0,1,3.961,1.882c.116-.011.233-.019.352-.022l.135,0v0a5.24,5.24,0,0,1,5.106,5.164l2.82,21.413.007.058v.058a5.239,5.239,0,0,1-5.241,5.226h-.35a5.231,5.231,0,0,1-3.669,1.5h-2.752a5.227,5.227,0,0,1-3.473,1.317h-5.519a5.226,5.226,0,0,1-3.473-1.317h-2.752a5.23,5.23,0,0,1-3.669-1.5h-.152a5.24,5.24,0,0,1-5.241-5.226v-.058Zm21.016-5.249a3.686,3.686,0,0,0-1.04.168,3.571,3.571,0,0,0-.807.369,3.418,3.418,0,0,0-.721.594,3.226,3.226,0,0,0-.436.6q-.443-.1-.914-.163c-.3-.042-.61-.073-.926-.092a4.991,4.991,0,0,1,1.227-1.8,3.193,3.193,0,0,0-4.69.578,4.911,4.911,0,0,1,.758,1.385c-.3.053-.593.117-.874.19-.266.068-.522.144-.769.226l-.087.029a3.185,3.185,0,0,0-.6-.941,3.422,3.422,0,0,0-.711-.591,3.434,3.434,0,0,0-3.492-.134,5.26,5.26,0,0,1,1.848,1.178c.048,0,.1-.006.143-.007l.135,0v0a5.238,5.238,0,0,1,3.948,1.953,4.559,4.559,0,0,1,2.142-.635l.135,0v0a5.218,5.218,0,0,1,2.212.552,5.235,5.235,0,0,1,3.879-1.869l.135,0v0c.112,0,.222.01.332.02a5.265,5.265,0,0,1,1.244-.916,3.612,3.612,0,0,0-2.071-.688m-18.246,28.331a3.419,3.419,0,0,0,.608,1.9,3.468,3.468,0,0,0,2.856,1.5H196.5a5.258,5.258,0,0,1-.458-2.134v-.058l2.267-17.218.56-4.255a4.441,4.441,0,0,1,.444-1.721,6.593,6.593,0,0,1,1.138-1.69,3.386,3.386,0,0,0-6.032,2.157v.058Zm18.281-15.263,2.161,16.409.008.058v.058a5.265,5.265,0,0,1-.458,2.134h1.443a3.468,3.468,0,0,0,2.856-1.5,3.42,3.42,0,0,0,.609-1.9L213.672,185.9l-.007-.058v-.058a3.38,3.38,0,0,0-5.912-2.3,5.234,5.234,0,0,1,1.2,1.977,5.179,5.179,0,0,1,.265,1.578Zm10.636,13.764L217.69,184.4l-.008-.058v-.058a3.355,3.355,0,0,0-4.654-3.188c-.092.038-.182.081-.27.127a5.228,5.228,0,0,1,2.681,4.5l2.819,21.413.008.058v.058a5.188,5.188,0,0,1-.335,1.836,3.46,3.46,0,0,0,2.578-3.281m-21.948,4.9a3.465,3.465,0,0,0,2.72,1.317H206.8a3.466,3.466,0,0,0,2.721-1.317c.024-.031.046-.063.069-.094a3.421,3.421,0,0,0,.653-1.652c.013-.109.021-.22.023-.333l-1.288-9.779-.9-6.8-.636-4.827-.007-.058V187.1a3.418,3.418,0,0,0-.532-1.833,3.47,3.47,0,0,0-2.859-1.617,2.8,2.8,0,0,0-1.351.416,4.653,4.653,0,0,0-1.492,1.485,3.161,3.161,0,0,0-.561,1.55v.058l-.544,4.133-.9,6.8-1.387,10.531a3.5,3.5,0,0,0,.718,2.043c.009.012.017.024.026.035m-8.436-1.682a5.189,5.189,0,0,1-.309-1.769v-.058l2.827-21.47a5.229,5.229,0,0,1,2.778-4.551,3.452,3.452,0,0,0-1.116-.317c-.1-.011-.205-.018-.309-.02a3.465,3.465,0,0,0-3.4,3.45v.058l-2.826,21.464a3.458,3.458,0,0,0,2.354,3.213" transform="translate(-185.995 -176.098)" fill="#980d2b"/>
      </g>
    </g>
    <g id="Groupe_452" data-name="Groupe 452" transform="translate(2190 -11731)">
      <text id="Bordeaux" transform="translate(187 90)" fill="#980d2b" font-size="35" font-family="JosefinSans-Bold, Josefin Sans" font-weight="700"><tspan x="-101.045" y="0">BORDEAUX</tspan></text>
      <text id="The_very_best_of" data-name="The very best of" transform="translate(193 53)" fill="#980d2b" font-size="19" font-family="JosefinSans-SemiBold, Josefin Sans" font-weight="600"><tspan x="-91.219" y="0">THE VERY BEST OF</tspan></text>
    </g>
  </g>
</svg>
